<svg style="background-color:rgba(25, 23, 22, 1)" id="Capa_1" enable-background="new 0 0 511.98 511.98" height="512" viewBox="0 0 511.98 511.98" width="512" xmlns="http://www.w3.org/2000/svg" xmlns:xlink="http://www.w3.org/1999/xlink"><linearGradient id="SVGID_1_" gradientUnits="userSpaceOnUse" x1="255.99" x2="255.99" y1="511.974" y2=".006"><stop offset="0" stop-color="#23ce6b"/><stop offset="1" stop-color="#3b28cc"/></linearGradient><g><g><path d="m507.586 68.039-63.64-63.64c-2.813-2.813-6.628-4.393-10.606-4.393s-7.794 1.58-10.606 4.394l-21.213 21.213c-.867.867-1.625 1.837-2.256 2.889l-30.87 51.449-94.555 94.525c-40.325-28.618-97.163-18.774-125.166 23.23l-22.927 34.391c-6.473 3.536-13.501 6.65-20.886 9.922-21.937 9.72-46.8 20.737-74.655 48.784-40.491 40.769-40.24 107.13.56 147.93l42.426 42.427c40.659 40.659 106.787 41.146 147.408 1.076 27.795-27.417 39.122-52.648 49.115-74.908 3.366-7.498 6.569-14.634 10.163-21.182l34.342-22.894c41.773-27.849 51.987-84.604 23.255-125.13l94.559-94.529 51.452-30.871c1.052-.631 2.021-1.388 2.889-2.256l21.213-21.213c5.857-5.859 5.857-15.356-.002-21.214zm-210.008 270.251-37.311 24.874c-1.895 1.263-3.477 2.94-4.626 4.905-5.102 8.719-9.082 17.585-13.296 26.972-9.35 20.828-19.019 42.365-42.814 65.837-28.924 28.53-76.084 28.113-105.128-.931l-42.425-42.427c-29.143-29.143-29.361-76.504-.487-105.576 23.88-24.044 45.05-33.425 65.523-42.496 9.3-4.121 18.085-8.013 26.793-13.1 1.969-1.15 3.65-2.734 4.916-4.632l24.913-37.369c17.333-26 51.826-33.763 78.503-18.177l-72.88 72.856c-5.856 5.855-5.859 15.357-.001 21.215l42.426 42.427c5.856 5.856 15.353 5.859 21.211.002l72.877-72.854c15.453 26.484 7.991 61.018-18.194 78.474zm-65.286-37.441-21.213-21.213 169.227-169.173c7.985 7.985 13.593 13.593 21.214 21.213-8.795 8.792-161.966 161.914-169.228 169.173zm234.174-212.903-41.407 24.844c-6.616-6.616-19.245-19.245-25.864-25.864l24.845-41.407 9.301-9.301 42.427 42.426zm-350.849 244.721c-17.546 17.546-17.546 46.094 0 63.64 17.544 17.544 46.094 17.545 63.639 0 17.546-17.546 17.546-46.094 0-63.64-17.545-17.545-46.094-17.544-63.639 0zm42.427 42.427c-5.849 5.848-15.365 5.849-21.213 0-5.848-5.848-5.848-15.365 0-21.213 5.848-5.847 15.364-5.85 21.213 0 5.848 5.848 5.848 15.364 0 21.213z" fill="url(#SVGID_1_)"/></g></g></svg>